<svg xmlns="http://www.w3.org/2000/svg" width="960" height="600" viewBox="0 0 960 600"><defs><linearGradient id="silver" x1="0" y1="0" x2="1" y2="1"><stop stop-color="#fff"/><stop offset=".3" stop-color="#a7e6ff"/><stop offset=".55" stop-color="#236d9e"/><stop offset=".72" stop-color="#d5f4ff"/><stop offset="1" stop-color="#4376a0"/></linearGradient><radialGradient id="glow"><stop stop-color="#1d6c94" stop-opacity=".7"/><stop offset="1" stop-color="#06121c" stop-opacity="0"/></radialGradient><pattern id="grid" width="40" height="40" patternUnits="userSpaceOnUse"><path d="M40 0H0V40" fill="none" stroke="#214154" stroke-opacity=".5"/></pattern></defs><rect width="960" height="600" fill="#bcc9ce"/><path d="M102 115L480 70L842 126V490L480 528L102 483Z" fill="#f4f0e4"/><path d="M480 70V528" stroke="#c4c1b8" stroke-width="8"/><g fill="#153443" font-family="sans-serif"><text x="147" y="196" font-size="43" font-weight="700">THE SHAPE</text><text x="147" y="250" font-size="43" font-weight="700">OF IDEAS</text><text x="147" y="310" font-size="14" letter-spacing="3">EDITORIAL SYSTEM / VOL. 01</text></g><g stroke="#3b5360" stroke-width="3"><path d="M147 354H410M147 374H410M147 394H350M147 444H280"/></g><circle cx="650" cy="281" r="114" fill="#14618a"/><circle cx="680" cy="281" r="75" fill="#a3d5e2"/><path d="M525 433H791M525 451H760M525 469H685" stroke="#5e7075" stroke-width="3"/></svg>