<svg xmlns="http://www.w3.org/2000/svg" width="960" height="600" viewBox="0 0 960 600"><defs><linearGradient id="silver" x1="0" y1="0" x2="1" y2="1"><stop stop-color="#fff"/><stop offset=".3" stop-color="#a7e6ff"/><stop offset=".55" stop-color="#236d9e"/><stop offset=".72" stop-color="#d5f4ff"/><stop offset="1" stop-color="#4376a0"/></linearGradient><radialGradient id="glow"><stop stop-color="#1d6c94" stop-opacity=".7"/><stop offset="1" stop-color="#06121c" stop-opacity="0"/></radialGradient><pattern id="grid" width="40" height="40" patternUnits="userSpaceOnUse"><path d="M40 0H0V40" fill="none" stroke="#214154" stroke-opacity=".5"/></pattern></defs><rect width="960" height="600" fill="#cad6dd"/><ellipse cx="480" cy="503" rx="295" ry="37" fill="#648096" opacity=".18"/><path d="M250 202L448 134L590 215L393 288Z" fill="#e9f5f8"/><path d="M250 202V442L393 521V288Z" fill="#10344c"/><path d="M393 288L590 215V451L393 521Z" fill="#277194"/><path d="M496 149L637 98L758 162L614 216Z" fill="#e6f2f8"/><path d="M496 149V392L614 455V216Z" fill="#175171"/><path d="M614 216L758 162V404L614 455Z" fill="#3a94b5"/><g fill="none" stroke="#dcf6ff" stroke-width="2"><ellipse cx="327" cy="345" rx="46" ry="70"/><ellipse cx="555" cy="269" rx="37" ry="59"/></g><g fill="#d5f5ff" font-family="sans-serif"><text x="273" y="263" font-size="17">ORBIT</text><text x="510" y="205" font-size="17">ORBIT</text><text x="430" y="416" font-size="18">01 / 02</text></g></svg>